<svg width="16" height="16" viewBox="0 0 16 16" fill="none" xmlns="http://www.w3.org/2000/svg">
<rect width="16" height="16" fill="#1E1E1E"/>
<mask id="path-2-inside-1_8_17" fill="white">
<path fill-rule="evenodd" clip-rule="evenodd" d="M15.0002 3.02982C14.8415 3.00999 14.6797 2.99977 14.5156 2.99977L6.08742 2.99977C3.94982 2.99977 2.21695 4.73264 2.21695 6.87025C2.21695 9.00785 3.94982 10.7407 6.08742 10.7407L7.41462 10.7407L15.0002 3.02982Z"/>
</mask>
<path d="M15.0002 3.02982L15.4962 3.51773L16.4836 2.514L15.0865 2.33946L15.0002 3.02982ZM6.08742 10.7407L6.08742 10.045L6.08742 10.7407ZM7.41462 10.7407L7.41462 11.4365L7.70614 11.4365L7.91059 11.2286L7.41462 10.7407ZM14.5156 3.6955C14.6508 3.6955 14.7838 3.70392 14.914 3.72019L15.0865 2.33946C14.8992 2.31606 14.7086 2.30404 14.5156 2.30404L14.5156 3.6955ZM6.08742 3.6955L14.5156 3.6955L14.5156 2.30404L6.08743 2.30404L6.08742 3.6955ZM2.91268 6.87025C2.91268 5.11688 4.33406 3.6955 6.08742 3.6955L6.08743 2.30404C3.56558 2.30404 1.52122 4.3484 1.52122 6.87025L2.91268 6.87025ZM6.08742 10.045C4.33406 10.045 2.91268 8.62361 2.91268 6.87025L1.52122 6.87025C1.52122 9.39209 3.56558 11.4365 6.08742 11.4365L6.08742 10.045ZM7.41462 10.045L6.08742 10.045L6.08742 11.4365L7.41462 11.4365L7.41462 10.045ZM7.91059 11.2286L15.4962 3.51773L14.5043 2.54191L6.91865 10.2528L7.91059 11.2286Z" fill="#FF16CC" mask="url(#path-2-inside-1_8_17)"/>
<mask id="path-4-inside-2_8_17" fill="white">
<path fill-rule="evenodd" clip-rule="evenodd" d="M1 13.4062C1.1587 13.4261 1.32039 13.4363 1.48447 13.4363H9.91262C12.0502 13.4363 13.7831 11.7034 13.7831 9.56579C13.7831 7.42818 12.0502 5.69531 9.91262 5.69531H8.58565L1 13.4062Z"/>
</mask>
<path d="M1 13.4062L0.504032 12.9183L-0.483459 13.9221L0.913792 14.0966L1 13.4062ZM8.58565 5.69531V4.99958H8.29413L8.08968 5.2074L8.58565 5.69531ZM1.48447 12.7405C1.34928 12.7405 1.21638 12.7321 1.08621 12.7159L0.913792 14.0966C1.10102 14.12 1.29151 14.132 1.48447 14.132V12.7405ZM9.91262 12.7405H1.48447V14.132H9.91262V12.7405ZM13.0874 9.56579C13.0874 11.3192 11.666 12.7405 9.91262 12.7405V14.132C12.4345 14.132 14.4788 12.0876 14.4788 9.56579H13.0874ZM9.91262 6.39104C11.666 6.39104 13.0874 7.81242 13.0874 9.56579H14.4788C14.4788 7.04394 12.4345 4.99958 9.91262 4.99958V6.39104ZM8.58565 6.39104H9.91262V4.99958H8.58565V6.39104ZM8.08968 5.2074L0.504032 12.9183L1.49597 13.8941L9.08162 6.18322L8.08968 5.2074Z" fill="#8B35F9" fill-opacity="0.93" mask="url(#path-4-inside-2_8_17)"/>
</svg>
