<svg width="446" height="333" viewBox="0 0 446 333" fill="none" xmlns="http://www.w3.org/2000/svg">
<mask id="path-1-inside-1_7_2" fill="white">
<path fill-rule="evenodd" clip-rule="evenodd" d="M445.999 0.956329C440.944 0.32521 435.794 9.06071e-05 430.568 9.01228e-05L162.072 6.5243e-05C93.9739 5.89328e-05 38.7697 55.2043 38.7697 123.302C38.7697 191.4 93.9739 246.604 162.072 246.604L204.342 246.604L445.999 0.956329Z"/>
</mask>
<path d="M445.999 0.956329L461.799 16.4997L493.259 -15.4793L448.745 -21.0369L445.999 0.956329ZM204.342 246.604L204.342 268.768L213.629 268.768L220.142 262.148L204.342 246.604ZM430.568 22.164C434.874 22.164 439.107 22.4318 443.253 22.9495L448.745 -21.0369C442.781 -21.7814 436.714 -22.1638 430.568 -22.1638L430.568 22.164ZM162.072 22.164L430.568 22.164L430.568 -22.1638L162.072 -22.1639L162.072 22.164ZM60.9336 123.302C60.9336 67.4451 106.215 22.164 162.072 22.164L162.072 -22.1639C81.7331 -22.1639 16.6058 42.9635 16.6058 123.302L60.9336 123.302ZM162.072 224.44C106.215 224.44 60.9336 179.159 60.9336 123.302L16.6058 123.302C16.6057 203.641 81.7331 268.768 162.072 268.768L162.072 224.44ZM204.342 224.44L162.072 224.44L162.072 268.768L204.342 268.768L204.342 224.44ZM220.142 262.148L461.799 16.4997L430.199 -14.5871L188.542 231.061L220.142 262.148Z" fill="#FF16CC" mask="url(#path-1-inside-1_7_2)"/>
<mask id="path-3-inside-2_7_2" fill="white">
<path fill-rule="evenodd" clip-rule="evenodd" d="M0 331.501C5.05501 332.133 10.2051 332.458 15.4311 332.458H283.927C352.025 332.458 407.23 277.253 407.23 209.156C407.23 141.058 352.025 85.8535 283.927 85.8535H241.657L0 331.501Z"/>
</mask>
<path d="M0 331.501L-15.8001 315.958L-47.2596 347.937L-2.74585 353.495L0 331.501ZM241.657 85.8535V63.6896H232.37L225.857 70.3101L241.657 85.8535ZM15.4311 310.294C11.1252 310.294 6.8922 310.026 2.74585 309.508L-2.74585 353.495C3.21783 354.239 9.28493 354.622 15.4311 354.622V310.294ZM283.927 310.294H15.4311V354.622H283.927V310.294ZM385.066 209.156C385.066 265.013 339.785 310.294 283.927 310.294V354.622C364.266 354.622 429.393 289.494 429.393 209.156H385.066ZM283.927 108.017C339.784 108.017 385.066 153.299 385.066 209.156H429.393C429.393 128.817 364.266 63.6896 283.927 63.6896V108.017ZM241.657 108.017H283.927V63.6896H241.657V108.017ZM225.857 70.3101L-15.8001 315.958L15.8001 347.045L257.457 101.397L225.857 70.3101Z" fill="#8B35F9" fill-opacity="0.93" mask="url(#path-3-inside-2_7_2)"/>
</svg>
